<?xml version="1.0" encoding="UTF-8" standalone="no"?>
<svg
   xmlns:dc="http://purl.org/dc/elements/1.1/"
   xmlns:cc="http://creativecommons.org/ns#"
   xmlns:rdf="http://www.w3.org/1999/02/22-rdf-syntax-ns#"
   xmlns:svg="http://www.w3.org/2000/svg"
   xmlns="http://www.w3.org/2000/svg"
   xmlns:sodipodi="http://sodipodi.sourceforge.net/DTD/sodipodi-0.dtd"
   xmlns:inkscape="http://www.inkscape.org/namespaces/inkscape"
   version="1.0"
   width="700.000000pt"
   height="700.000000pt"
   viewBox="0 0 700.000000 700.000000"
   preserveAspectRatio="xMidYMid meet"
   id="svg12"
   sodipodi:docname="logo.svg"
   inkscape:version="0.92.1 r15371">
  <defs
     id="defs16" />
  <sodipodi:namedview
     pagecolor="#ffffff"
     bordercolor="#666666"
     borderopacity="1"
     objecttolerance="10"
     gridtolerance="10"
     guidetolerance="10"
     inkscape:pageopacity="0"
     inkscape:pageshadow="2"
     inkscape:window-width="1920"
     inkscape:window-height="1017"
     id="namedview14"
     showgrid="false"
     inkscape:zoom="0.25285714"
     inkscape:cx="-175.27949"
     inkscape:cy="468.90102"
     inkscape:window-x="-8"
     inkscape:window-y="-8"
     inkscape:window-maximized="1"
     inkscape:current-layer="svg12" />
  <metadata
     id="metadata2">
Created by potrace 1.11, written by Peter Selinger 2001-2013
<rdf:RDF>
  <cc:Work
     rdf:about="">
    <dc:format>image/svg+xml</dc:format>
    <dc:type
       rdf:resource="http://purl.org/dc/dcmitype/StillImage" />
    <dc:title></dc:title>
  </cc:Work>
</rdf:RDF>
</metadata>
  <g
     transform="translate(0.000000,700.000000) scale(0.100000,-0.100000)"
     fill="#000000"
     stroke="none"
     id="g10">
    <path
       d="M4057 6825 c-1 -2 -34 -5 -73 -8 -443 -38 -890 -263 -1179 -594 -226 -258 -353 -551 -390 -898 -6 -57 -6 -322 0 -375 39 -336 147 -590 336 -786 27 -29 49 -55 49 -58 0 -7 -499 -256 -509 -254 -3 1 -15 -2 -26 -6 -58 -22 -77 -28 -160 -46 -70 -15 -117 -19 -210 -16 -66 2 -131 7 -145 10 -14 3 -36 8 -50 11 -116 21 -374 137 -615 275 -175 101 -247 132 -356 156 -49 10 -157 6 -219 -10 -215 -55 -374 -252 -451 -556 -11 -47 -23 -96 -25 -110 -11 -68 -14 -90 -21 -150 -9 -81 -9 -423 1 -510 4 -36 9 -85 12 -110 7 -65 43 -268 56 -315 5 -22 12 -48 14 -58 2 -10 6 -28 9 -40 18 -68 28 -104 33 -117 3 -8 6 -21 8 -27 6 -33 50 -160 91 -263 100 -256 241 -512 394 -712 290 -381 723 -678 1259 -866 174 -60 397 -121 540 -146 19 -3 45 -8 57 -10 19 -4 173 -27 278 -41 83 -11 272 -19 460 -19 248 0 362 7 605 40 457 62 963 242 1315 468 237 152 473 379 673 646 76 101 203 336 261 483 33 82 94 284 107 352 12 63 12 67 20 115 4 25 9 56 11 70 9 53 11 379 2 450 -57 458 -264 855 -584 1118 -44 36 -86 71 -94 78 -12 11 -8 19 22 51 64 68 109 136 154 228 25 49 48 96 52 104 8 15 17 18 101 25 137 13 301 51 425 98 164 63 283 137 402 251 212 203 335 497 292 697 -13 63 -72 178 -114 223 -76 81 -185 137 -290 151 -55 7 -123 13 -260 21 -49 2 -117 7 -150 10 -33 2 -98 7 -145 10 -109 7 -235 17 -236 19 0 0 -19 33 -42 72 -125 215 -329 424 -555 570 -134 87 -368 194 -491 225 -116 29 -208 49 -247 54 -24 3 -62 8 -84 11 -37 6 -312 13 -318 9z m353 -470 c425 -81 760 -307 962 -647 l40 -68 -41 -95 c-87 -197 -117 -317 -120 -480 -2 -150 24 -284 87 -441 11 -28 17 -55 13 -60 -4 -5 -13 -26 -20 -48 -21 -61 -85 -147 -173 -231 -54 -52 -88 -94 -104 -129 -28 -61 -45 -142 -39 -182 14 -84 18 -101 37 -139 34 -66 69 -105 132 -147 228 -153 372 -315 469 -528 217 -479 141 -1073 -201 -1560 -133 -189 -323 -378 -497 -495 -33 -22 -62 -43 -65 -46 -11 -12 -162 -94 -255 -139 -222 -105 -538 -204 -755 -235 -24 -4 -47 -8 -50 -10 -3 -2 -34 -6 -70 -9 -36 -4 -76 -9 -90 -11 -45 -7 -153 -18 -225 -21 -99 -5 -431 -4 -485 1 -25 2 -76 6 -115 10 -38 3 -79 7 -90 9 -11 2 -42 7 -70 10 -27 4 -66 10 -85 13 -235 33 -572 134 -795 236 -485 223 -788 507 -1026 962 -31 61 -69 139 -84 175 -14 36 -32 79 -39 95 -25 55 -95 279 -120 380 -25 101 -51 247 -61 340 -15 144 -17 182 -16 315 1 142 2 164 15 265 19 141 87 305 139 335 36 20 62 9 280 -112 330 -184 529 -266 757 -313 120 -25 321 -35 406 -21 16 3 50 7 75 10 72 9 236 54 334 93 50 19 203 90 340 158 138 67 280 136 316 154 142 67 222 199 213 354 -7 116 -36 163 -188 312 -122 120 -136 137 -180 226 -77 158 -101 281 -101 519 1 178 9 232 57 375 96 287 307 528 593 677 125 65 274 117 380 134 22 3 58 10 80 14 46 9 382 6 435 -5z m1530 -940 c58 -3 130 -8 160 -10 30 -2 87 -6 125 -9 39 -3 115 -8 170 -12 153 -10 157 -11 145 -54 -38 -132 -167 -286 -295 -353 -135 -69 -302 -115 -439 -120 l-70 -2 -13 45 c-18 59 -23 183 -11 251 9 52 81 241 101 266 5 7 12 11 16 9 3 -2 53 -7 111 -11z"
       id="path4" />
    <path
       d="M4471 5749 c-111 -49 -165 -179 -122 -292 17 -43 80 -105 124 -122 62 -23 100 -24 157 -5 160 54 206 252 86 372 -62 63 -166 83 -245 47z"
       id="path6" />
    <path
       d="M2917 3165 c-1 -2 -45 -5 -97 -9 -499 -35 -931 -263 -1121 -591 -50 -86 -83 -171 -95 -245 -3 -19 -8 -38 -10 -42 -7 -10 -6 -187 1 -218 3 -14 8 -41 11 -60 23 -122 129 -309 233 -410 274 -266 669 -411 1127 -412 105 0 215 6 271 16 10 2 40 7 66 10 69 10 76 12 164 36 104 28 255 87 326 127 33 18 61 33 65 33 3 0 44 28 91 62 265 191 403 433 402 708 0 482 -430 864 -1096 975 -53 9 -331 25 -338 20z m259 -468 c12 -3 39 -8 60 -11 75 -12 220 -58 300 -96 157 -73 274 -172 330 -281 24 -46 28 -66 29 -139 0 -78 -3 -90 -33 -146 -89 -164 -314 -304 -575 -358 -137 -29 -151 -30 -307 -30 -174 -1 -234 6 -370 41 -255 65 -459 202 -535 358 -25 50 -30 72 -30 135 0 62 5 85 29 135 39 79 148 187 249 244 81 45 233 107 289 116 18 3 42 8 53 12 62 19 206 31 340 28 83 -2 160 -6 171 -8z"
       id="path8" />
  </g>
  <path
     style="fill:#ffc40d;fill-opacity:1;stroke:#ffc40d;stroke-width:3.95480227;stroke-opacity:1"
     d="m 342.7996,706.70236 c -23.43719,-7.67888 -33.96728,-13.85441 -50.38867,-29.55122 -33.88866,-32.39333 -18.1503,-68.15103 40.50167,-92.02019 29.67683,-12.07736 91.51939,-13.12168 120.62147,-2.03691 62.83509,23.93343 80.93914,60.71147 46.43387,94.32952 -24.97614,24.33395 -47.76757,32.10607 -97.8463,33.36667 -28.04895,0.70606 -49.12242,-0.74611 -59.32204,-4.08787 z"
     id="path3705"
     inkscape:connector-curvature="0"
     transform="scale(0.75000002)" />
  <path
     style="fill:#ffc40d;fill-opacity:1;stroke:#ffc40d;stroke-width:3.95480227;stroke-opacity:1"
     d="M 342.57444,840.73444 C 297.52663,832.09992 242.27409,811.92046 208.92321,791.92202 124.10153,741.05978 69.992963,641.76098 65.047856,527.8853 c -2.207914,-50.84373 4.833064,-90.67604 16.843051,-95.2847 3.140792,-1.20524 27.536903,8.68795 54.213573,21.98486 100.18072,49.93479 146.65928,48.6846 254.15275,-6.83627 37.24845,-19.239 44.55648,-24.62631 50.8316,-37.4719 11.06497,-22.65072 6.38894,-37.95748 -20.74087,-67.89414 -29.80321,-32.88667 -37.66236,-56.15758 -35.22025,-104.28699 1.36292,-26.86081 4.10204,-39.22285 12.64884,-57.08619 15.73624,-32.88971 43.57218,-59.63201 80.35057,-77.19371 30.22055,-14.430321 31.62794,-14.694677 78.23181,-14.694677 46.34743,0 48.15628,0.333675 77.32405,14.263587 33.46819,15.98373 54.38708,32.74167 73.18334,58.62655 l 12.72418,17.5229 -9.87593,25.97992 c -11.79271,31.02225 -13.30182,75.44735 -3.48066,102.46412 7.269,19.99612 5.5915,24.68041 -18.00689,50.28164 -8.55139,9.27713 -17.17788,22.55071 -19.16999,29.49684 -4.86453,16.96163 4.21855,42.87026 18.6586,53.22195 23.46799,16.82357 47.6711,42.27251 57.66331,60.63149 58.01485,106.5924 -2.23712,248.14336 -131.20523,308.24255 -53.48748,24.92518 -96.01972,33.43785 -174.48145,34.92178 -46.89891,0.88698 -78.20568,-0.4155 -97.11782,-4.04047 z m 131.81567,-75.2954 C 563.07378,737.42389 603.86223,663.6889 568.87235,594.63963 550.4616,558.30778 509.17252,530.58691 451.55667,515.87559 c -30.2465,-7.72297 -97.17275,-5.76088 -126.94689,3.72171 -48.12251,15.32628 -85.87478,43.51054 -102.42156,76.46365 -47.3073,94.21304 50.9099,188.42118 188.65845,180.95771 18.92971,-1.02564 45.40949,-5.85109 63.54344,-11.57962 z M 628.77705,217.4986 c 13.65842,-12.72477 12.92081,-33.18802 -1.66944,-46.31487 -19.73011,-17.75116 -48.99727,-4.73936 -48.99727,21.78356 0,28.27506 30.69579,43.13704 50.66671,24.53131 z"
     id="path3707"
     inkscape:connector-curvature="0"
     transform="scale(0.75000002)" />
  <path
     style="fill:#ffc40d;fill-opacity:1;stroke:#ffc40d;stroke-width:3.95480227;stroke-opacity:1"
     d="m 763.98604,263.4549 c 0,-12.28011 2.68737,-28.75924 5.97192,-36.62028 l 5.97191,-14.2928 46.31308,2.76885 c 25.4722,1.52287 46.94149,3.39726 47.70953,4.1653 2.7575,2.75749 -10.56611,24.09285 -21.57382,34.54657 -14.15624,13.44381 -41.2974,25.44357 -65.60731,29.00656 l -18.78531,2.75328 z"
     id="path3709"
     inkscape:connector-curvature="0"
     transform="scale(0.75000002)" />
</svg>
