<?xml version="1.0" standalone="no"?>
<!DOCTYPE svg PUBLIC "-//W3C//DTD SVG 20010904//EN"
 "http://www.w3.org/TR/2001/REC-SVG-20010904/DTD/svg10.dtd">
<svg version="1.0" xmlns="http://www.w3.org/2000/svg"
 width="700.000000pt" height="700.000000pt" viewBox="0 0 700.000000 700.000000"
 preserveAspectRatio="xMidYMid meet">
<metadata>
Created by potrace 1.11, written by Peter Selinger 2001-2013
</metadata>
<g transform="translate(0.000000,700.000000) scale(0.100000,-0.100000)"
fill="#000000" stroke="none">
<path d="M4057 6825 c-1 -2 -34 -5 -73 -8 -443 -38 -890 -263 -1179 -594 -226
-258 -353 -551 -390 -898 -6 -57 -6 -322 0 -375 39 -336 147 -590 336 -786 27
-29 49 -55 49 -58 0 -7 -499 -256 -509 -254 -3 1 -15 -2 -26 -6 -58 -22 -77
-28 -160 -46 -70 -15 -117 -19 -210 -16 -66 2 -131 7 -145 10 -14 3 -36 8 -50
11 -116 21 -374 137 -615 275 -175 101 -247 132 -356 156 -49 10 -157 6 -219
-10 -215 -55 -374 -252 -451 -556 -11 -47 -23 -96 -25 -110 -11 -68 -14 -90
-21 -150 -9 -81 -9 -423 1 -510 4 -36 9 -85 12 -110 7 -65 43 -268 56 -315 5
-22 12 -48 14 -58 2 -10 6 -28 9 -40 18 -68 28 -104 33 -117 3 -8 6 -21 8 -27
6 -33 50 -160 91 -263 100 -256 241 -512 394 -712 290 -381 723 -678 1259
-866 174 -60 397 -121 540 -146 19 -3 45 -8 57 -10 19 -4 173 -27 278 -41 83
-11 272 -19 460 -19 248 0 362 7 605 40 457 62 963 242 1315 468 237 152 473
379 673 646 76 101 203 336 261 483 33 82 94 284 107 352 12 63 12 67 20 115
4 25 9 56 11 70 9 53 11 379 2 450 -57 458 -264 855 -584 1118 -44 36 -86 71
-94 78 -12 11 -8 19 22 51 64 68 109 136 154 228 25 49 48 96 52 104 8 15 17
18 101 25 137 13 301 51 425 98 164 63 283 137 402 251 212 203 335 497 292
697 -13 63 -72 178 -114 223 -76 81 -185 137 -290 151 -55 7 -123 13 -260 21
-49 2 -117 7 -150 10 -33 2 -98 7 -145 10 -109 7 -235 17 -236 19 0 0 -19 33
-42 72 -125 215 -329 424 -555 570 -134 87 -368 194 -491 225 -116 29 -208 49
-247 54 -24 3 -62 8 -84 11 -37 6 -312 13 -318 9z m353 -470 c425 -81 760
-307 962 -647 l40 -68 -41 -95 c-87 -197 -117 -317 -120 -480 -2 -150 24 -284
87 -441 11 -28 17 -55 13 -60 -4 -5 -13 -26 -20 -48 -21 -61 -85 -147 -173
-231 -54 -52 -88 -94 -104 -129 -28 -61 -45 -142 -39 -182 14 -84 18 -101 37
-139 34 -66 69 -105 132 -147 228 -153 372 -315 469 -528 217 -479 141 -1073
-201 -1560 -133 -189 -323 -378 -497 -495 -33 -22 -62 -43 -65 -46 -11 -12
-162 -94 -255 -139 -222 -105 -538 -204 -755 -235 -24 -4 -47 -8 -50 -10 -3
-2 -34 -6 -70 -9 -36 -4 -76 -9 -90 -11 -45 -7 -153 -18 -225 -21 -99 -5 -431
-4 -485 1 -25 2 -76 6 -115 10 -38 3 -79 7 -90 9 -11 2 -42 7 -70 10 -27 4
-66 10 -85 13 -235 33 -572 134 -795 236 -485 223 -788 507 -1026 962 -31 61
-69 139 -84 175 -14 36 -32 79 -39 95 -25 55 -95 279 -120 380 -25 101 -51
247 -61 340 -15 144 -17 182 -16 315 1 142 2 164 15 265 19 141 87 305 139
335 36 20 62 9 280 -112 330 -184 529 -266 757 -313 120 -25 321 -35 406 -21
16 3 50 7 75 10 72 9 236 54 334 93 50 19 203 90 340 158 138 67 280 136 316
154 142 67 222 199 213 354 -7 116 -36 163 -188 312 -122 120 -136 137 -180
226 -77 158 -101 281 -101 519 1 178 9 232 57 375 96 287 307 528 593 677 125
65 274 117 380 134 22 3 58 10 80 14 46 9 382 6 435 -5z m1530 -940 c58 -3
130 -8 160 -10 30 -2 87 -6 125 -9 39 -3 115 -8 170 -12 153 -10 157 -11 145
-54 -38 -132 -167 -286 -295 -353 -135 -69 -302 -115 -439 -120 l-70 -2 -13
45 c-18 59 -23 183 -11 251 9 52 81 241 101 266 5 7 12 11 16 9 3 -2 53 -7
111 -11z"/>
<path d="M4471 5749 c-111 -49 -165 -179 -122 -292 17 -43 80 -105 124 -122
62 -23 100 -24 157 -5 160 54 206 252 86 372 -62 63 -166 83 -245 47z"/>
<path d="M2917 3165 c-1 -2 -45 -5 -97 -9 -499 -35 -931 -263 -1121 -591 -50
-86 -83 -171 -95 -245 -3 -19 -8 -38 -10 -42 -7 -10 -6 -187 1 -218 3 -14 8
-41 11 -60 23 -122 129 -309 233 -410 274 -266 669 -411 1127 -412 105 0 215
6 271 16 10 2 40 7 66 10 69 10 76 12 164 36 104 28 255 87 326 127 33 18 61
33 65 33 3 0 44 28 91 62 265 191 403 433 402 708 0 482 -430 864 -1096 975
-53 9 -331 25 -338 20z m259 -468 c12 -3 39 -8 60 -11 75 -12 220 -58 300 -96
157 -73 274 -172 330 -281 24 -46 28 -66 29 -139 0 -78 -3 -90 -33 -146 -89
-164 -314 -304 -575 -358 -137 -29 -151 -30 -307 -30 -174 -1 -234 6 -370 41
-255 65 -459 202 -535 358 -25 50 -30 72 -30 135 0 62 5 85 29 135 39 79 148
187 249 244 81 45 233 107 289 116 18 3 42 8 53 12 62 19 206 31 340 28 83 -2
160 -6 171 -8z"/>
</g>
</svg>
